PathFileType	4	(X/Y/Z)	67_1_3_p0_0-140.trc
DataRate	CameraRate	NumFrames	NumMarkers	Units	OrigDataRate	OrigDataStartFrame	OrigNumFrames
49.0	49.0	6	27	m	49.0	52	141
Frame#	Time	RHip			RKnee			RAnkle			RBigToe			RSmallToe			RHeel			LHip			LKnee			LAnkle			LBigToe			LSmallToe			LHeel			Neck			Head			Nose			RShoulder			RElbow			RWrist			RThumb			RIndex			RPinky			LShoulder			LElbow			LWrist			LThumb			LIndex			LPinky			
		X1	Y1	Z1	X2	Y2	Z2	X3	Y3	Z3	X4	Y4	Z4	X5	Y5	Z5	X6	Y6	Z6	X7	Y7	Z7	X8	Y8	Z8	X9	Y9	Z9	X10	Y10	Z10	X11	Y11	Z11	X12	Y12	Z12	X13	Y13	Z13	X14	Y14	Z14	X15	Y15	Z15	X16	Y16	Z16	X17	Y17	Z17	X18	Y18	Z18	X19	Y19	Z19	X20	Y20	Z20	X21	Y21	Z21	X22	Y22	Z22	X23	Y23	Z23	X24	Y24	Z24	X25	Y25	Z25	X26	Y26	Z26	X27	Y27	Z27	
52	1.0612244897959184	0.3663805835388763	0.4816820321931635	-0.12315848106236046	0.35713224804104166	0.6533258357424614	0.3078849356801622	0.3399524870491274	0.8845274105562293	0.7665050434948023	0.34552696493567925	0.623555468291381	0.797357640988559	0.39526570318895704	0.6856053003851811	0.7961958714986255	0.3328807170416609	0.9468858086622308	0.8065190462594113	0.18619159990225026	0.5109729404716983	-0.1164909048003332	0.1690570657978357	0.680939448458245	0.3113342583931246	0.1591302822068908	0.8273805810568872	0.7448378181097697	0.19535409585374924	0.6634277071652388	0.8124837850530862	0.13507821370371462	0.6872642324853749	0.7955983279729886	0.17250672526654678	0.8773903236015826	0.8126830474471498	0.3019148584756656	0.39189254365103005	-0.6403161594576443	0.319888361901222	0.2350758742903175	-0.8553322442040683	0.30903119851660976	0.21139776411527506	-0.715485797114532	0.45844592674392753	0.3978971926603857	-0.5426560663339608	0.4574736139088586	0.4308940580786258	-0.28141363148737375	0.35199485640393907	0.39931839727106777	-0.052855434584024384	0.26845968255302555	0.4496926166108185	0.022092405476483085	0.26147345761481816	0.4635191597845518	0.024234814914286345	0.28407275357791384	0.4039088643383501	0.03406280189432616	0.15315536658664067	0.4073552456959836	-0.5667575461546154	0.13018824199057924	0.40837473291018755	-0.29878211266285976	0.22297912094277436	0.35197197702964367	-0.09009724406108192	0.3137626231966209	0.3553091528045427	-0.01864223258157037	0.3128688376826641	0.36727141963272	0.016382647349675844	0.2735969277473796	0.39924162699766336	0.03406969488248514
53	1.0816326530612246	0.3659228210093656	0.4824643763816534	-0.11946608722036033	0.35716807189152316	0.6535585467375987	0.30805116871829763	0.3437773182597981	0.90026519089622	0.7748983441034732	0.3456044841812628	0.6233160185657387	0.7972482920271337	0.3956027936626228	0.6849592269799464	0.8001343773571864	0.33283710962824486	0.9466259072043386	0.8063744855051577	0.18620837276379182	0.510847718542977	-0.11647805209293104	0.16906077800056554	0.6810182607919009	0.3113822624097969	0.15996772486944238	0.8309079960935761	0.7501827857118167	0.19493137994108437	0.6638958820890631	0.8085451883787206	0.13493301458608517	0.6872147785338989	0.7955844241696424	0.17379439416985576	0.8751824053751396	0.8066895036379068	0.3019026952032229	0.39199228047773477	-0.6403395668455073	0.3198900303241991	0.23521043947127654	-0.855335730723773	0.3089387553703291	0.21129488011397587	-0.7155127802623289	0.4584832706903399	0.3979342260675748	-0.5427077460777197	0.4574769480013849	0.4307605636923774	-0.2813961332501363	0.3520812540591668	0.39916124567046257	-0.05278946538489354	0.267583588195106	0.45150880723599834	0.01824331604446683	0.260750086343571	0.46527758859498203	0.024183606989881208	0.28397895476916857	0.4037787509671973	0.034624758481636736	0.1531350454100403	0.4073822764597327	-0.5667282570115426	0.13010436165665817	0.4083937329658507	-0.2987640042402871	0.2228420077341209	0.3516870959900857	-0.09017316357743207	0.3140059067408956	0.35423663980633974	-0.018839901936741944	0.31227240662204836	0.36736161526525146	0.01904669806565476	0.2736498883272383	0.3990836524781861	0.03385064632849379
54	1.1020408163265305	0.370740719265062	0.46707845168642365	-0.1233345273724561	0.36081186460097253	0.6681077885723844	0.30975571394966556	0.33997074576545183	0.8844752335515007	0.7664383403903379	0.34912070898810643	0.6387686998021014	0.8015770127102086	0.3963481666729885	0.6882101726869287	0.8004191561888409	0.33302424537061454	0.9474599462636202	0.8069463303095107	0.17853637501117764	0.5111026046485517	-0.11637264334367653	0.16904210716204	0.6810447027561145	0.3114216908010066	0.15914892751672263	0.8271982171820822	0.7447021824390602	0.19419039511533845	0.6613283190195883	0.8039090350841819	0.13581546748011428	0.6867307565289865	0.787607760066806	0.17820909593990802	0.8801923212220917	0.8079446984941504	0.3019647986808309	0.39175476732640274	-0.6403445925907477	0.31563991281507353	0.2343818855036601	-0.8550740466171296	0.3086651118204293	0.21024056834544141	-0.7150395745431278	0.4585062336612673	0.3977109218512128	-0.5427562345854325	0.4616897961869283	0.4321155474148507	-0.2815033421927191	0.3521345364369362	0.40112914747540496	-0.05338078441947482	0.2723793737312207	0.4512583644453186	0.018568715909928053	0.26479283259376546	0.465717174960777	0.024134286541800862	0.2836087880160812	0.40362130804464863	0.03151855089853683	0.15313166250107896	0.407382077450836	-0.5667252915234214	0.13006654539112467	0.4083681871939518	-0.29883616071101493	0.2186384708900709	0.35050165358169194	-0.09360775947357916	0.314235171722182	0.3533930635297069	-0.01898643114668883	0.3126286838330572	0.3654991656510996	0.015826840904863564	0.27372179414967024	0.39879782457979723	0.0339848001418597
55	1.1224489795918366	0.37068244660144856	0.46691519655999897	-0.12333626948424828	0.3572306779376163	0.6528846272938341	0.3076399870703968	0.33998956018215715	0.884558289001286	0.76645560355938	0.3492221764497653	0.6392798809549347	0.8016953328681212	0.3962235372113075	0.6889069217814701	0.7962615720238595	0.3332962426020987	0.9475810236443505	0.8069697356850967	0.1784784747467758	0.5108739825202625	-0.11641489478082206	0.1690847237278661	0.6809256908575197	0.3113740081207297	0.15912807877299048	0.827301578757063	0.7447308497049878	0.19423012049381097	0.660865764873797	0.8037792061878867	0.1349443549105098	0.6874901305951343	0.7915557040233588	0.17678314634937378	0.8822161148833371	0.8139641592941408	0.3019949721328602	0.39169504743963035	-0.640323197621621	0.31566417269013264	0.23438836272245045	-0.8550693571740323	0.30866525834585645	0.21013096857080663	-0.7150531958943788	0.458515579893542	0.3976244956968597	-0.5427540767768813	0.46164571766767865	0.4322629285735503	-0.2815382526060117	0.35172413393505375	0.39890436050642875	-0.05700787330294006	0.2790087269623363	0.4337131830977302	0.018148403914479607	0.265929956354504	0.4503214116379935	0.019736384557444194	0.27950132635363134	0.4003432809980205	0.02237625230989576	0.1533578924438812	0.40655505976780404	-0.5700874242823105	0.13000360320605744	0.408414706827851	-0.298809352550929	0.21842384115611974	0.35014329559884194	-0.09370441231387397	0.31458897898036114	0.35289100246794614	-0.019274626678269794	0.3171278441217567	0.35237247338372923	0.008394464739244047	0.2777091302333137	0.38609236838802924	0.03365514175715669
56	1.1428571428571428	0.36639433752739703	0.48133288792693857	-0.12336842513040398	0.3572194215900211	0.6530882955466873	0.3077102992767318	0.34001055273895603	0.8844741971019924	0.7664077865757163	0.3488218417520442	0.6377041259626341	0.8013819452969524	0.39998788316058265	0.6695109152911302	0.7911553938889632	0.332985402912677	0.9468441421968883	0.8065040606460613	0.17849075184574298	0.5110857569309487	-0.1164414482647632	0.1690812164728446	0.6810288607661643	0.3113363412410876	0.15913430482828428	0.8273451399367803	0.7447840366180882	0.19429158898528126	0.6606890265672849	0.8037092732672433	0.14063048224388222	0.671443937817958	0.7869982256180552	0.17669153489512884	0.8828289021530149	0.8143856656162325	0.30195703665137946	0.391680814754848	-0.6402770332775864	0.3156200040330894	0.23570435820808092	-0.8519650390806522	0.30856924809086406	0.20971309183639317	-0.7149630270020669	0.45516578113452955	0.3853551197261141	-0.5409744232588951	0.4617471732412951	0.4324180010241226	-0.28164492805740976	0.3517218606545376	0.39880469778873434	-0.057118340953075324	0.2749218224186453	0.4191090265352113	0.012897205433590757	0.26064284388774456	0.46618220002726246	0.024759499502316897	0.27941396270131713	0.40020657982814023	0.02206592955092156	0.1533422607480934	0.4065080250846107	-0.5700712949952674	0.1300541372443091	0.40823209454132686	-0.2988142936353605	0.21806831880968144	0.34956542440091853	-0.09729554150431917	0.31448506030221224	0.3528632575986366	-0.019231221077460607	0.31684704958789883	0.3525543264105248	0.008247709370129117	0.27331683639872256	0.3961328000419432	0.030525871593967142
57	1.163265306122449	0.37075709780310084	0.46702551311315577	-0.12359252645986263	0.36174744491250066	0.6371490643653541	0.30138982866772257	0.34000535341810906	0.8843010142936247	0.7662421738125346	0.3459178727734654	0.6247425260282021	0.797643162233675	0.40012825210310143	0.6696515048164581	0.7911109770684269	0.33298242633482006	0.9468630183906013	0.806509762607849	0.17877508411821863	0.5100382143516774	-0.12365897952220592	0.16998549151236417	0.6798592477025335	0.30714139736460266	0.15994544736676006	0.8308887226166913	0.7502597485254667	0.19879105553285625	0.6629860177815874	0.8083949970333628	0.13644975391942266	0.6854704410637967	0.791066916292154	0.17793781985283597	0.8801049059020147	0.8080596956965427	0.3018396824020177	0.39399311208249826	-0.6337975989773663	0.3128190400224012	0.22426916366363417	-0.8458266608733902	0.3048778088577717	0.20908565583915856	-0.7112933661420028	0.45853516917214754	0.3976572154564298	-0.5427608113569352	0.46194900944545486	0.4327980030188886	-0.28191170944205785	0.35200955515443416	0.3981842822053267	-0.0606653023981354	0.2742737887297435	0.4179363986917207	0.005773383502628978	0.2575353504537279	0.4641425314209728	0.015505005160134212	0.27202830753301743	0.39880304065364636	0.01764300798931027	0.15315052262791226	0.40885685715861597	-0.5637022799806755	0.1299740664657487	0.40864549714476883	-0.29887689492979325	0.21416469106246808	0.3478198836407302	-0.10073185786906867	0.3199452419310126	0.33922511465431615	-0.027187459493981877	0.31592221552485683	0.35145265509153467	0.007053281617800403	0.2737663204868507	0.39884349856831486	0.03456646904723384
